<?xml version="1.0" encoding="UTF-8"?>
<!DOCTYPE svg PUBLIC "-//W3C//DTD SVG 1.1//EN" "http://www.w3.org/Graphics/SVG/1.1/DTD/svg11.dtd">
<svg xmlns="http://www.w3.org/2000/svg" version="1.1" width="513px" height="513px" style="shape-rendering:geometricPrecision; text-rendering:geometricPrecision; image-rendering:optimizeQuality; fill-rule:evenodd; clip-rule:evenodd" xmlns:xlink="http://www.w3.org/1999/xlink">
<g><path style="opacity:0.993" fill="#fed300" d="M 473.5,40.5 C 455.115,57.8841 437.448,75.8841 420.5,94.5C 402.211,76.8723 380.878,72.039 356.5,80C 350.843,82.4934 345.51,85.4934 340.5,89C 313.299,116.368 285.965,143.535 258.5,170.5C 239.812,188.744 234.645,210.411 243,235.5C 245.913,243.003 250.08,249.67 255.5,255.5C 255.631,256.239 255.464,256.906 255,257.5C 237.632,274.701 220.465,292.035 203.5,309.5C 188.726,294.954 177.726,277.954 170.5,258.5C 169.021,251.526 167.521,244.526 166,237.5C 162.832,214.807 164.332,192.473 170.5,170.5C 176.501,153.494 185.334,138.161 197,124.5C 227.167,94.3333 257.333,64.1667 287.5,34C 327.972,0.806588 373.305,-7.86008 423.5,8C 442.724,15.0986 459.391,25.9319 473.5,40.5 Z"/></g>
<g><path style="opacity:0.979" fill="#dfd7d5" d="M 189.5,9.5 C 200.158,7.90768 206.991,12.241 210,22.5C 212.975,32.7346 215.475,43.0679 217.5,53.5C 215.777,66.0642 208.777,70.8975 196.5,68C 191.572,66.0732 188.406,62.5732 187,57.5C 184.009,46.5379 181.176,35.5379 178.5,24.5C 179.526,17.4063 183.192,12.4063 189.5,9.5 Z"/></g>
<g><path style="opacity:1" fill="#fe9f00" d="M 473.5,40.5 C 495.292,62.4171 508.292,88.7504 512.5,119.5C 512.5,130.167 512.5,140.833 512.5,151.5C 508.94,177.958 498.773,201.625 482,222.5C 450.887,253.613 419.721,284.779 388.5,316C 374.839,327.666 359.506,336.499 342.5,342.5C 343.837,334.817 345.337,327.15 347,319.5C 350.216,297.84 348.383,276.673 341.5,256C 342.056,255.617 342.389,255.117 342.5,254.5C 368.438,229.062 394.272,203.395 420,177.5C 437.753,157.204 441.42,134.537 431,109.5C 428.059,104.067 424.559,99.0671 420.5,94.5C 437.448,75.8841 455.115,57.8841 473.5,40.5 Z"/></g>
<g><path style="opacity:0.979" fill="#ded6d4" d="M 82.5,71.5 C 88.5411,70.5928 93.8744,72.0928 98.5,76C 105.333,82.8333 112.167,89.6667 119,96.5C 125.571,105.488 124.738,113.654 116.5,121C 110.833,124.333 105.167,124.333 99.5,121C 88.9213,112.423 79.7546,102.59 72,91.5C 70.0309,81.7647 73.5309,75.098 82.5,71.5 Z"/></g>
<g><path style="opacity:0.994" fill="#4a686e" d="M 170.5,170.5 C 164.332,192.473 162.832,214.807 166,237.5C 167.521,244.526 169.021,251.526 170.5,258.5C 144.562,283.938 118.728,309.605 93,335.5C 74.844,356.621 71.5106,379.954 83,405.5C 86.2657,410.375 89.7657,415.042 93.5,419.5C 75.1151,436.884 57.4484,454.884 40.5,473.5C 9.81079,442.612 -3.35587,405.279 1,361.5C 4.24944,334.346 14.5828,310.346 32,289.5C 62.8333,258.667 93.6667,227.833 124.5,197C 138.161,185.334 153.494,176.501 170.5,170.5 Z"/></g>
<g><path style="opacity:0.996" fill="#4a686e" d="M 258.5,170.5 C 273.976,176.574 288.309,184.74 301.5,195C 304.371,197.703 307.038,200.536 309.5,203.5C 292.194,221.14 274.861,238.807 257.5,256.5C 256.833,256.167 256.167,255.833 255.5,255.5C 250.08,249.67 245.913,243.003 243,235.5C 234.645,210.411 239.812,188.744 258.5,170.5 Z"/></g>
<g><path style="opacity:0.978" fill="#dfd7d5" d="M 22.5,178.5 C 36.6044,180.941 50.2711,184.775 63.5,190C 71.6304,198.678 71.2971,207.011 62.5,215C 59.7946,216.872 56.7946,217.705 53.5,217.5C 40.5721,214.935 27.9055,211.435 15.5,207C 7.89354,199.11 7.5602,190.944 14.5,182.5C 16.9909,180.588 19.6575,179.254 22.5,178.5 Z"/></g>
<g><path style="opacity:1" fill="#384949" d="M 309.5,203.5 C 316.886,210.388 323.386,218.055 329,226.5C 334.349,235.528 338.849,244.861 342.5,254.5C 342.389,255.117 342.056,255.617 341.5,256C 348.383,276.673 350.216,297.84 347,319.5C 345.337,327.15 343.837,334.817 342.5,342.5C 336.499,359.506 327.666,374.839 316,388.5C 283.11,422.058 249.61,454.891 215.5,487C 195.828,500.721 174.162,509.221 150.5,512.5C 140.5,512.5 130.5,512.5 120.5,512.5C 89.3361,508.584 62.6694,495.584 40.5,473.5C 57.4484,454.884 75.1151,436.884 93.5,419.5C 111.766,436.146 132.766,440.646 156.5,433C 162.157,430.507 167.49,427.507 172.5,424C 199.701,396.632 227.035,369.465 254.5,342.5C 267.424,331.137 274.09,316.637 274.5,299C 273.931,282.71 268.265,268.543 257.5,256.5C 274.861,238.807 292.194,221.14 309.5,203.5 Z"/></g>
<g><path style="opacity:1" fill="#fe9f00" d="M 255.5,255.5 C 256.167,255.833 256.833,256.167 257.5,256.5C 268.265,268.543 273.931,282.71 274.5,299C 274.09,316.637 267.424,331.137 254.5,342.5C 239.024,336.426 224.691,328.26 211.5,318C 208.629,315.297 205.962,312.464 203.5,309.5C 220.465,292.035 237.632,274.701 255,257.5C 255.464,256.906 255.631,256.239 255.5,255.5 Z"/></g>
<g><path style="opacity:0.973" fill="#d2c5c2" d="M 454.5,295.5 C 469.31,296.952 483.643,300.452 497.5,306C 503.599,311.743 505.099,318.577 502,326.5C 498.697,331.486 494.031,334.153 488,334.5C 476.106,331.568 464.273,328.402 452.5,325C 444.045,319.303 441.878,311.803 446,302.5C 448.441,299.546 451.275,297.213 454.5,295.5 Z"/></g>
<g><path style="opacity:0.977" fill="#d1c5c2" d="M 401.5,389.5 C 407.092,389.087 412.092,390.587 416.5,394C 423.333,400.833 430.167,407.667 437,414.5C 443.338,423.118 442.838,431.284 435.5,439C 429.472,442.265 423.472,442.265 417.5,439C 409.364,431.865 401.53,424.365 394,416.5C 386.489,404.55 388.989,395.55 401.5,389.5 Z"/></g>
<g><path style="opacity:0.973" fill="#d2c5c2" d="M 308.5,443.5 C 315.686,443.508 321.186,446.508 325,452.5C 328.48,464.418 331.646,476.418 334.5,488.5C 332.282,500.214 325.282,505.048 313.5,503C 310.438,501.939 307.938,500.106 306,497.5C 300.289,483.66 296.956,469.327 296,454.5C 298.537,448.785 302.704,445.118 308.5,443.5 Z"/></g>
</svg>
